# xmcd
#
# Track frame offsets: 
#        150
#        16990
#        29583
#        45358
#        60890
#        73265
#        88523
#        101923
#        116763
#        131932
#        148788
#        165270
#        183795
#        200980
#        216758
#        234278
#        251300
#        267793
#        282770
#        299588
#
# Disc length: 4172 seconds
#
# Revision: 0
# Processed by: cddbd v1.5.1PL0 Copyright (c) Steve Scherf et al.
# Submitted via: ExactAudioCopy v0.95a5
#
DISCID=28104a14
DTITLE=Clara Nunes - Clara Nunes 1981-1982
DYEAR=2004
DGENRE=Samba
TTITLE0=Portela na Avenida
TTITLE1=Deixa Clarear
TTITLE2=Cora? Ao Valente
TTITLE3=Congada
TTITLE4=Magoada
TTITLE5=Minha Missão
TTITLE6=Vontade de Chorar
TTITLE7=Derramando Lágrimas
TTITLE8=Como é Grande e Bonita A Natureza
TTITLE9=Coroa De Areia
TTITLE10=Nação
TTITLE11=Menino Velho
TTITLE12=Ijexa
TTITLE13=Vapor de São Francisco
TTITLE14=Novo Amor
TTITLE15=Serrinha
TTITLE16=Afoxé pra Logun
TTITLE17=Cinto Cruzado
TTITLE18=Mãe África
TTITLE19=Amor Perfeito
EXTD=
EXTT0=
EXTT1=
EXTT2=
EXTT3=
EXTT4=
EXTT5=
EXTT6=
EXTT7=
EXTT8=
EXTT9=
EXTT10=
EXTT11=
EXTT12=
EXTT13=
EXTT14=
EXTT15=
EXTT16=
EXTT17=
EXTT18=
EXTT19=
PLAYORDER=
